<svg xmlns="http://www.w3.org/2000/svg" width="1190.617" height="886.651" viewBox="0 0 1190.617 886.651">
  <g id="Group_162854" data-name="Group 162854" transform="translate(-348.332 -193.444)">
    <path id="Path_1" data-name="Path 1" d="M306.824,181.154H93.172a8.255,8.255,0,0,1-8.257-8.257h0a8.256,8.256,0,0,1,8.257-8.257H306.824a8.256,8.256,0,0,1,8.257,8.257h0A8.255,8.255,0,0,1,306.824,181.154Z" transform="translate(263.417 211.865)" fill="#f4b0a7"/>
    <path id="Path_2" data-name="Path 2" d="M483.186,63.11H343.991a8.451,8.451,0,0,1-8.451-8.451h0a8.453,8.453,0,0,1,8.451-8.453H483.186a8.453,8.453,0,0,1,8.453,8.453h0A8.452,8.452,0,0,1,483.186,63.11Z" transform="translate(624.46 182.794)" fill="#ffd4cd"/>
    <path id="Path_4" data-name="Path 4" d="M317.644,459.52h-79.06a10.6,10.6,0,0,1-10.6-10.6h0a10.6,10.6,0,0,1,10.6-10.6h79.06a10.6,10.6,0,0,1,10.6,10.6h0A10.6,10.6,0,0,1,317.644,459.52Z" transform="translate(450.545 475.166)" fill="#ffd4cd"/>
    <g id="Group_3" data-name="Group 3" transform="translate(628 317.485)">
      <rect id="Rectangle_6" data-name="Rectangle 6" width="663.428" height="557.03" rx="7.151" fill="#fce7e4"/>
      <line id="Line_1" data-name="Line 1" x2="663.428" transform="translate(0 67.027)" fill="none" stroke="#fefef4" stroke-width="1.941"/>
      <rect id="Rectangle_7" data-name="Rectangle 7" width="663.428" height="557.03" rx="7.151" fill="none" stroke="#fefef4" stroke-width="1.941"/>
      <g id="Group_2" data-name="Group 2" transform="translate(46.732 24.844)">
        <circle id="Ellipse_1" data-name="Ellipse 1" cx="9.353" cy="9.353" r="9.353" fill="none" stroke="#fefef4" stroke-width="1.941"/>
        <circle id="Ellipse_2" data-name="Ellipse 2" cx="9.353" cy="9.353" r="9.353" transform="translate(36.349)" fill="none" stroke="#fefef4" stroke-width="1.941"/>
        <circle id="Ellipse_3" data-name="Ellipse 3" cx="9.353" cy="9.353" r="9.353" transform="translate(72.698)" fill="none" stroke="#fefef4" stroke-width="1.941"/>
      </g>
    </g>
    <g id="Group_6" data-name="Group 6" transform="translate(403 511.213)">
      <rect id="Rectangle_8" data-name="Rectangle 8" width="375.789" height="163.639" rx="10.354" fill="#ffd4cd"/>
      <g id="Group_5" data-name="Group 5" transform="translate(31.342 23.268)">
        <path id="Path_5" data-name="Path 5" d="M113.464,287.622a7.116,7.116,0,1,1-7.116-7.116A7.115,7.115,0,0,1,113.464,287.622Z" transform="translate(-99.232 -280.506)" fill="none" stroke="#fefef4" stroke-width="1.477"/>
        <circle id="Ellipse_4" data-name="Ellipse 4" cx="7.115" cy="7.115" r="7.115" transform="translate(27.655 0)" fill="none" stroke="#fefef4" stroke-width="1.477"/>
        <circle id="Ellipse_5" data-name="Ellipse 5" cx="7.115" cy="7.115" r="7.115" transform="translate(55.309 0)" fill="none" stroke="#fefef4" stroke-width="1.477"/>
      </g>
      <line id="Line_2" data-name="Line 2" x2="375.789" transform="translate(0 57.321)" fill="none" stroke="#fefef4" stroke-width="1.477"/>
    </g>
    <g id="Group_8" data-name="Group 8" transform="translate(1257.259 277.167)">
      <rect id="Rectangle_9" data-name="Rectangle 9" width="64" height="80" rx="12.24" transform="translate(-0.259 -0.167)" fill="#ffd4cd"/>
      <text id="_" data-name="!" transform="translate(22.741 62.833)" fill="#fefef4" font-size="60" font-family="Gotham-Bold, Gotham" font-weight="700"><tspan x="0" y="0">!</tspan></text>
    </g>
    <g id="Group_10" data-name="Group 10" transform="translate(549.047 807.976)">
      <rect id="Rectangle_12" data-name="Rectangle 12" width="105" height="105" rx="14.132" transform="translate(-0.047 0.024)" fill="#0093de"/>
      <g id="Group_9" data-name="Group 9" transform="translate(26.954 27.024)">
        <path id="Path_7" data-name="Path 7" d="M155.193,128.962a25.647,25.647,0,1,1,25.649-25.647A25.676,25.676,0,0,1,155.193,128.962Zm0-43.587a17.94,17.94,0,1,0,17.94,17.94A17.96,17.96,0,0,0,155.193,85.375Z" transform="translate(-129.546 -77.667)" fill="#fefef4"/>
        <line id="Line_3" data-name="Line 3" x1="29.41" y2="35.879" transform="translate(11.355 7.708)" fill="none" stroke="#fefef4" stroke-width="4.522"/>
      </g>
    </g>
    <g id="Group_12" data-name="Group 12" transform="translate(1175.344 434.728)">
      <rect id="Rectangle_13" data-name="Rectangle 13" width="363.606" height="283.686" rx="13.046" transform="translate(-0.344)" fill="#0093de"/>
      <text id="_404" data-name="404" transform="translate(45.656 195.464)" fill="#fefef4" font-size="129" font-family="Gotham-Bold, Gotham" font-weight="700"><tspan x="0" y="0">404</tspan></text>
      <text id="Page_not_found" data-name="Page not found" transform="translate(114.656 234.464)" fill="#fff" font-size="19" font-family="Gotham-Medium, Gotham" font-weight="500"><tspan x="0" y="0">Page not found</tspan></text>
      <g id="Group_11" data-name="Group 11" transform="translate(30.737 19.89)">
        <circle id="Ellipse_6" data-name="Ellipse 6" cx="6.892" cy="6.892" r="6.892" fill="none" stroke="#fefef4" stroke-width="1.43"/>
        <circle id="Ellipse_7" data-name="Ellipse 7" cx="6.892" cy="6.892" r="6.892" transform="translate(26.786 0)" fill="none" stroke="#fefef4" stroke-width="1.43"/>
        <circle id="Ellipse_8" data-name="Ellipse 8" cx="6.892" cy="6.892" r="6.892" transform="translate(53.572)" fill="none" stroke="#fefef4" stroke-width="1.43"/>
      </g>
      <line id="Line_4" data-name="Line 4" x2="363.606" transform="translate(0 55.528)" fill="none" stroke="#fefef4" stroke-width="1.43"/>
    </g>
    <g id="Group_28" data-name="Group 28" transform="translate(664 481.153)">
      <g id="Group_15" data-name="Group 15" transform="translate(231.86 383.779)">
        <path id="Path_8" data-name="Path 8" d="M467.7,312.071l-1.385-18.733L349.534,299.08v18.078S323.267,342.15,312.9,508.406H523.121S546.182,361.264,467.7,312.071Z" transform="translate(-312.902 -293.338)" fill="#0093de"/>
        <g id="Group_14" data-name="Group 14" transform="translate(36.633 18.733)">
          <line id="Line_5" data-name="Line 5" y1="5.087" x2="118.17" fill="none" stroke="#000" stroke-width="1.552"/>
          <path id="Path_9" data-name="Path 9" d="M345.453,347.15l24.207,9.856,12.958,104.735" transform="translate(-321.308 -265.407)" fill="none" stroke="#000" stroke-width="1.552"/>
        </g>
      </g>
      <g id="Group_24" data-name="Group 24" transform="translate(0 144.544)">
        <g id="Group_18" data-name="Group 18" transform="translate(0 30.607)">
          <g id="Group_16" data-name="Group 16" transform="translate(139.208 0.579)">
            <path id="Path_10" data-name="Path 10" d="M264.893,333.441l32.261-106.506,70.966,26.6-34.048,102a36.313,36.313,0,0,1-69.179-22.1Z" transform="translate(-263.28 -142.873)" fill="#f26e5a"/>
            <path id="Path_11" data-name="Path 11" d="M298.931,209.1a38.5,38.5,0,1,1,73.341,23.428L352.388,292.58l-70.966-26.6Z" transform="translate(-247.549 -181.914)" fill="#fefef4"/>
          </g>
          <g id="Group_17" data-name="Group 17">
            <path id="Path_12" data-name="Path 12" d="M384.338,364.76,303.286,211.076s1.849-27.767-44.278-29.427l.009.041c-.627-.03-1.251-.086-1.882-.086H241.717a5.84,5.84,0,0,0-5.865,4.855,5.7,5.7,0,0,0,4.933,6.494l15.552,2.2L235.18,200.8l-3.949,1.458L202.42,183.219a4.671,4.671,0,0,0-5.708,7.387c1.778,1.483,4.64,3.938,7.758,6.632l-6.36-3.807a4.67,4.67,0,0,0-5.1,7.818c1.553,1.1,3.553,2.506,5.68,4l-2.213-.863a5.708,5.708,0,0,0-6.77,1.878,5.491,5.491,0,0,0,2.39,8.2l31.483,13.179c5.435,2.274,10.628,3.693,17.019,2.179l28.066-6.615,62.8,175.769Z" transform="translate(-188.725 -181.604)" fill="#f26e5a"/>
            <line id="Line_6" data-name="Line 6" x2="15" y2="28.441" transform="translate(162.347 120.082)" fill="none" stroke="#db5749" stroke-width="1.5"/>
          </g>
        </g>
        <g id="Group_19" data-name="Group 19" transform="translate(212.812 29.005)">
          <path id="Path_13" data-name="Path 13" d="M343.574,183.31l-30.129,2.252s-43.627,59.177,44.936,211.156l116.785-5.742,8.8-163.743-14.418-46.487H417.223Z" transform="translate(-302.7 -180.746)" fill="#fefef4"/>
          <path id="Path_14" data-name="Path 14" d="M308.587,263.546s-8.69-18.278-3.107-58.768" transform="translate(-301.912 -159.906)" fill="none" stroke="#fce7e4" stroke-width="1.552"/>
        </g>
        <g id="Group_23" data-name="Group 23" transform="translate(342.823)">
          <g id="Group_21" data-name="Group 21" transform="translate(0 25.193)">
            <path id="Path_15" data-name="Path 15" d="M504.614,319.041l-48.5-100.159-65.941,37.361,49.561,95.428a36.314,36.314,0,0,0,64.881-32.629Z" transform="translate(-356.857 -143.863)" fill="#f26e5a"/>
            <g id="Group_20" data-name="Group 20">
              <path id="Path_16" data-name="Path 16" d="M445.41,200.279a38.5,38.5,0,1,0-68.783,34.591l29.018,56.213,65.941-37.36Z" transform="translate(-372.33 -178.705)" fill="#fefef4"/>
              <line id="Line_7" data-name="Line 7" x1="23.959" y1="46.413" transform="translate(9.356 65.967)" fill="none" stroke="#fce7e4" stroke-width="1.552"/>
            </g>
          </g>
          <g id="Group_22" data-name="Group 22" transform="translate(92.387)">
            <path id="Path_17" data-name="Path 17" d="M578.417,194.232a5.708,5.708,0,0,0-6.77-1.878l-14.088,5.5,13.233-11.2a5.643,5.643,0,0,0,1.148-7.476,5.5,5.5,0,0,0-7.96-1.145l-12.312,9.913,10.5-13.722a5.639,5.639,0,0,0-.478-7.547,5.5,5.5,0,0,0-8.021.583l-20.72,21.5-21.157-5.646,15.554-2.2a5.7,5.7,0,0,0,4.933-6.494,5.84,5.84,0,0,0-5.865-4.853H510.989a36.993,36.993,0,0,0-24.736,9.23c-.114.086-.219.146-.334.237-9.461,7.461-6.02,22.753-6.02,22.753l-58.09,164.456,57.571,25.537,33.189-176.609,21.2.039a22.318,22.318,0,0,0,3.949.007h.161l-.009-.007a22.531,22.531,0,0,0,6.679-1.641l31.483-11.143A5.492,5.492,0,0,0,578.417,194.232Z" transform="translate(-421.809 -165.212)" fill="#f26e5a"/>
            <line id="Line_8" data-name="Line 8" x1="12.545" y2="43.793" transform="translate(10.029 132.645)" fill="none" stroke="#db5749" stroke-width="1.5"/>
          </g>
        </g>
      </g>
      <g id="Group_27" data-name="Group 27" transform="translate(193.408)">
        <path id="Path_18" data-name="Path 18" d="M350.243,116.275c-3.63,2.491-27.978,8.819-28.46,13.236,0,0,8.01,31.313-.194,37.155-22.18,15.8-29.281,46.773-29.281,46.773s58.512,43.813,214.056-2.192c0,0,1.863-18.633-26.428-32.159-8.074-3.861-15.251-9.681-19.788-17.583-3.514-6.121-4.048-8.718-4.98-14.211C452.563,131.939,410.189,75.153,350.243,116.275Z" transform="translate(-292.308 -75.827)"/>
        <path id="Path_19" data-name="Path 19" d="M341.872,142.659a18.652,18.652,0,1,1-19.9-17.313A18.654,18.654,0,0,1,341.872,142.659Z" transform="translate(-281.639 -55.279)" fill="#db5749"/>
        <path id="Path_20" data-name="Path 20" d="M329.081,169.516l2.579,40.566c.876,14.248,6.7,23.954,20.718,22.979h0c11.965-.833,26.2-10.419,26.858-22.395L372.1,147.02Z" transform="translate(-260.419 -36.444)" fill="#f26e5a"/>
        <path id="Path_21" data-name="Path 21" d="M324.61,183.31l73.649-2.564s-1.791,36.21-45.565,32.819C322.267,211.209,324.61,183.31,324.61,183.31Z" transform="translate(-264.332 -7.197)" fill="#f26e5a"/>
        <path id="Path_22" data-name="Path 22" d="M331.368,198.339l47.073-46.022-49.547,8.451Z" transform="translate(-260.581 -31.85)" fill="#db5749"/>
        <path id="Path_23" data-name="Path 23" d="M357.017,223.756h0c-23.967.071-43.759-18.8-44.476-38.372l-1.41-46.185A45.5,45.5,0,0,1,353.44,92.146h0c25.067-1.744,51.2,16.857,52.94,41.924l.73,37.159C407.676,199.966,385.692,221.76,357.017,223.756Z" transform="translate(-276.012 -84.128)" fill="#f26e5a"/>
        <g id="Group_25" data-name="Group 25" transform="translate(38.03 56.913)">
          <path id="Path_24" data-name="Path 24" d="M325.98,133.321l-1.389,11.468,5.926.218" transform="translate(-302.343 -105.237)" fill="none" stroke="#000" stroke-linecap="round" stroke-linejoin="round" stroke-width="1.238"/>
          <path id="Path_25" data-name="Path 25" d="M344.227,118.37s-13.242-1.087-13.375,4.3c0,0,.011,3.648,11.564,4.373s14.555-.123,15.61-3.551S350.437,118.4,344.227,118.37Z" transform="translate(-296.913 -118.28)"/>
          <path id="Path_26" data-name="Path 26" d="M321.6,122.567s10.029-.807,10.973,4.039c0,0,.562,3.279-8.223,3.783s-11.5-.588-11.668-3.363C312.486,123.721,316.823,122.519,321.6,122.567Z" transform="translate(-312.676 -114.606)"/>
          <path id="Path_27" data-name="Path 27" d="M324.508,132.882a4.238,4.238,0,1,1-4.373-4.1A4.238,4.238,0,0,1,324.508,132.882Z" transform="translate(-309.763 -109.174)"/>
          <path id="Path_28" data-name="Path 28" d="M343.566,132.257a4.238,4.238,0,1,1-4.375-4.1A4.238,4.238,0,0,1,343.566,132.257Z" transform="translate(-293.237 -109.714)"/>
          <path id="Path_29" data-name="Path 29" d="M339.415,144.136s-6.263-2.857-13.828,3.671" transform="translate(-301.479 -96.398)" fill="none" stroke="#000" stroke-linecap="round" stroke-linejoin="round" stroke-width="1.238"/>
        </g>
        <path id="Path_30" data-name="Path 30" d="M371.042,87.877a57.43,57.43,0,0,0-17.785,1.878c-14.355,3.822-40.133,14.454-44.551,42.025-1.471,7.267-.452,9.7-.452,9.7s48.145,1.888,76.609-11.55c4.1,17.344,7.883,28.075,25.015,44.966l15.208-22.862,17.124,15.358C442.319,167.976,442.3,91.664,371.042,87.877Z" transform="translate(-278.778 -87.799)"/>
        <g id="Group_26" data-name="Group 26" transform="translate(118.816 70.209)">
          <path id="Path_31" data-name="Path 31" d="M393.2,142.759a18.652,18.652,0,1,1-19.9-17.313A18.653,18.653,0,0,1,393.2,142.759Z" transform="translate(-355.942 -125.4)" fill="#f26e5a"/>
          <path id="Path_32" data-name="Path 32" d="M362.125,143.977s-.937-13.49,12.109-12.264" transform="translate(-350.592 -119.994)" fill="none" stroke="#000" stroke-linecap="round" stroke-linejoin="round" stroke-width="1.238"/>
        </g>
      </g>
    </g>
    <rect id="Rectangle_21" data-name="Rectangle 21" width="16.9" height="16.926" transform="translate(767.867 202.73) rotate(-21)" fill="none" stroke="#0093de" stroke-linecap="round" stroke-linejoin="round" stroke-width="5" opacity="0.75"/>
    <g id="Group_215" data-name="Group 215" transform="matrix(0.999, -0.035, 0.035, 0.999, 1304.653, 827.745)" opacity="0.75">
      <path id="Path_6" data-name="Path 6" d="M0,17c2.123-2.125,5.474,1.22,7.594-.9S6.365,10.626,8.487,8.5s5.472,1.22,7.594-.9-1.229-5.471.9-7.6" transform="translate(0 0)" fill="none" stroke="#0093de" stroke-linecap="round" stroke-linejoin="round" stroke-width="5"/>
    </g>
    <path id="Path_119" data-name="Path 119" d="M8.487,17a8.5,8.5,0,0,1,0-17" transform="translate(1382.027 282.093) rotate(42)" fill="none" stroke="#0093de" stroke-linecap="round" stroke-linejoin="round" stroke-width="5" opacity="0.75"/>
    <path id="Path_118" data-name="Path 118" d="M5.756,17,0,0,17.867,1.423Z" transform="translate(1132.994 940.704) rotate(8)" fill="none" stroke="#0093de" stroke-linecap="round" stroke-linejoin="round" stroke-width="5" opacity="0.75"/>
    <g id="Group_216" data-name="Group 216" transform="translate(570.516 444.465) rotate(-11)" opacity="0.75">
      <line id="Line_11" data-name="Line 11" y2="17" transform="translate(8.487 0)" fill="none" stroke="#0093de" stroke-linecap="round" stroke-linejoin="round" stroke-width="5"/>
      <line id="Line_12" data-name="Line 12" x1="16.974" transform="translate(0 8.5)" fill="none" stroke="#0093de" stroke-linecap="round" stroke-linejoin="round" stroke-width="5"/>
    </g>
  </g>
</svg>
