<svg xmlns="http://www.w3.org/2000/svg" xmlns:xlink="http://www.w3.org/1999/xlink" width="71.114" height="70" viewBox="0 0 71.114 70">
  <defs>
    <linearGradient id="linear-gradient" x1="0.5" x2="0.5" y2="1" gradientUnits="objectBoundingBox">
      <stop offset="0" stop-color="#0034de"/>
      <stop offset="1" stop-color="#0093de"/>
    </linearGradient>
  </defs>
  <g id="healthcare" transform="translate(0 -4.01)">
    <path id="Path_83625" data-name="Path 83625" d="M149.256,202.677a1.041,1.041,0,0,0,.892-.5l1.879-3.122,2.49,3.957a1.042,1.042,0,0,0,1.786-.037l4.009-7.005,5.385,9.813a1.042,1.042,0,0,0,.895.54h.018a1.042,1.042,0,0,0,.895-.509l3.355-5.632h8.089a1.042,1.042,0,1,0,0-2.083h-8.681a1.041,1.041,0,0,0-.895.509l-2.726,4.575-5.4-9.846a1.042,1.042,0,0,0-.9-.541h-.009a1.042,1.042,0,0,0-.9.524l-4.071,7.113-2.468-3.921a1.042,1.042,0,0,0-.882-.487H152a1.041,1.041,0,0,0-.882.5l-2.448,4.067h-5.92a1.042,1.042,0,0,0,0,2.083Z" transform="translate(-122.023 -162.563)" fill="url(#linear-gradient)"/>
    <path id="Path_83626" data-name="Path 83626" d="M391.13,55.795a1.042,1.042,0,0,0-1.042,1.042V59.91h-3.073a1.042,1.042,0,1,0,0,2.083h3.073v3.073a1.042,1.042,0,1,0,2.083,0V61.993h3.073a1.042,1.042,0,1,0,0-2.083h-3.073V56.837A1.042,1.042,0,0,0,391.13,55.795Z" transform="translate(-332.364 -44.592)" fill="url(#linear-gradient)"/>
    <path id="Path_83627" data-name="Path 83627" d="M62.441,46.894a19.82,19.82,0,0,0,3.74-20.664A12.348,12.348,0,1,0,51.053,6.713a1.042,1.042,0,0,0,1.3,1.626,10.149,10.149,0,0,1,6.41-2.246,10.268,10.268,0,1,1-10.2,11.425c0-.012,0-.024,0-.036a10.324,10.324,0,0,1-.063-1.124,10.13,10.13,0,0,1,1.074-4.57,1.042,1.042,0,1,0-1.864-.932,12.194,12.194,0,0,0-1.293,5.5c0,.175,0,.349.012.522a19.7,19.7,0,0,0-7.143,4.51L38.13,22.523l-.015-.015-1.132-1.115A18.479,18.479,0,0,0,23.827,15.86a13.787,13.787,0,0,0-10,4.429,1.042,1.042,0,1,0,1.522,1.424,11.739,11.739,0,0,1,8.525-3.77,16.4,16.4,0,0,1,11.65,4.932l1.133,1.117a2.219,2.219,0,0,0,1.479.807,2.186,2.186,0,0,0,1.458-.792l1.151-1.132A17.68,17.68,0,0,1,46.7,19a12.347,12.347,0,0,0,17.683,8.357,17.7,17.7,0,0,1-3.455,18.1L45.973,60.769l-1.238.242c-.3.058-.565.111-.807.16a7.932,7.932,0,0,1-3.782.11l-8.91-1.629a1.366,1.366,0,0,1-1.024-1.676A1.27,1.27,0,0,1,31.64,56.93l.025,0,1.282.164c1.688.218,3.6.464,5.3.638,3.472.351,5.436-1.471,5.845-3.435.415-2-.725-4.663-4.211-5.775a1.252,1.252,0,0,0-.129-.032L34.01,47.441c-3.114-.571-5.536-.131-9.2.536-.969.176-2.07.375-3.295.576L18.792,49l-.838-.857-2.618-2.681A17.817,17.817,0,0,1,12.7,25.476a1.042,1.042,0,0,0-1.854-.95,19.928,19.928,0,0,0,2.974,22.368.166.166,0,0,1,.015.017l2.445,2.5-4.553.748v-.119a1.526,1.526,0,0,0-1.582-1.459H1.578A1.523,1.523,0,0,0,0,50.043V68.372a1.523,1.523,0,0,0,1.578,1.459h8.57a1.526,1.526,0,0,0,1.582-1.459v-.126L21.1,70.795l8.648,2.35a16.731,16.731,0,0,0,5.015.865,21.585,21.585,0,0,0,6.827-1.464l.706-.228,17.041-5.464a5.316,5.316,0,0,0,3.758-3.8A3.711,3.711,0,0,0,62,59.468c-.792-.718-2.653-1.749-6.241-.614l-6.186,1.21L62.426,46.91l.015-.017ZM2.083,67.747V50.667H9.647v.716s0,0,0,.007V66.882s0,0,0,0v.862Zm54.252-6.89c1.922-.617,3.477-.561,4.265.154a1.63,1.63,0,0,1,.456,1.6A3.275,3.275,0,0,1,58.7,64.869L41.656,70.335l-.71.229c-4.077,1.317-6.122,1.979-10.6.586l-.036-.011L11.73,66.086V52.273L21.85,50.61c1.242-.2,2.351-.407,3.331-.585,3.563-.647,5.714-1.038,8.453-.535l5.671,1.04c2.211.726,2.974,2.239,2.743,3.346-.265,1.279-1.676,1.981-3.593,1.786-1.67-.171-3.567-.415-5.24-.631-.447-.058-.876-.114-1.275-.164A3.331,3.331,0,0,0,28.184,57.5a3.527,3.527,0,0,0-.085,1.024,3.455,3.455,0,0,0,2.561,3.132c.043.014.618.121.618.121l8.507,1.556.028,0a9.4,9.4,0,0,0,3.592.06c.282-.05,1.432-.283,1.728-.34l1.875-.367s9.288-1.82,9.327-1.832Z" fill="url(#linear-gradient)"/>
  </g>
</svg>
