<svg xmlns="http://www.w3.org/2000/svg" xmlns:xlink="http://www.w3.org/1999/xlink" width="419.608" height="404.812" viewBox="0 0 419.608 404.812">
  <defs>
    <linearGradient id="linear-gradient" x1="0.931" y1="-0.134" x2="0.14" y2="1.029" gradientUnits="objectBoundingBox">
      <stop offset="0" stop-color="#0093de"/>
      <stop offset="1" stop-color="#0034de"/>
    </linearGradient>
  </defs>
  <path id="leftArrow" d="M5.246,180.332c62.77,40.495,145.318,38.795,205.163-6.514a165.775,165.775,0,0,0,34.283-34.487c-.885-.135-1.771-.245-2.656-.433-17.934-3.783-34.917-20.807-29.668-40.254,3.619-13.412,17.241-28.129,32.349-25.06C265.481,77.8,266.3,103.836,260,119.438a109.661,109.661,0,0,1-6.174,12.732c13.134.444,26.564-4.608,37.8-11.363C329.6,97.984,351.209,54.855,350.58,11.129q-1.948,3.17-3.9,6.337c-.488.8-2.493,3.648-3.738,2.84s.656-3.891,1.073-4.571c2.036-3.31,4.054-6.631,6.108-9.93C351.364,3.814,353.157.5,355.753.045c2.486-.433,3.705,2.387,4.794,4.127L367,14.492c1.21,1.937-4.07,8.729-5.348,6.682q-1.9-3.034-3.8-6.07c-.523-.837-1.188-1.731-1.848-2.643a143.974,143.974,0,0,1-50.058,103.281c-15.3,13.048-35.941,25.239-56.8,24.055-20.087,30.234-54.28,53.929-86.432,66.085C109.133,226.137,48.379,218.669.436,187.738-1.458,186.517,3.316,179.086,5.246,180.332Zm244.483-48.473c.3-.486.634-.952.93-1.442,6.139-10.177,10.341-22.4,5.818-34.056-3.317-8.545-10.493-15.777-20.22-15.543-13.984.333-22.329,15.74-17.647,28.222,2.974,7.936,9.325,14.229,16.693,18.228A40.554,40.554,0,0,0,249.728,131.859Z" transform="translate(142.495) rotate(41)" fill="url(#linear-gradient)"/>
</svg>
