<svg xmlns="http://www.w3.org/2000/svg" width="91.143" height="74.026" viewBox="0 0 91.143 74.026">
  <path id="Path_71" data-name="Path 71" d="M2708.72,2534.373a74.55,74.55,0,0,0-7.99,19.158,66.566,66.566,0,0,0-2.452,23.971,107.7,107.7,0,0,0,9.9,37.454c.591,1.271,1.77,3.314,1.135,4.949-1.045.181-1.364-1.09-1.727-1.68-6.31-11.259-11.849-24.561-13.167-40.859a69.484,69.484,0,0,1,3.043-25.332,104.987,104.987,0,0,1,8.672-20.021,14.612,14.612,0,0,0-2.678,1.816c-1.226.817-4.27,2.633-4.633,0-.316-2.179,2.815-4.041,4.176-5.176,1.864-1.544,4-3,5.177-4.177.907-.908,1.5-2.314,3.269-2.361,3.769-.136,3.269,5.9,3.131,9.9a16.882,16.882,0,0,1-.679,4.4c-.41,1.181-.954,2.725-2.134,2.815-2.361.181-2.59-2.77-3.043-4.858Z" transform="translate(3715.208 -639.732) rotate(126)" fill="#0093de" fill-rule="evenodd"/>
</svg>
