<svg xmlns="http://www.w3.org/2000/svg" width="91.143" height="74.026" viewBox="0 0 91.143 74.026">
  <path id="Path_83751" data-name="Path 83751" d="M14.483,85.549a74.55,74.55,0,0,1-7.99-19.158A66.566,66.566,0,0,1,4.041,42.42a107.7,107.7,0,0,1,9.9-37.454c.591-1.271,1.77-3.314,1.135-4.949C14.03-.164,13.71,1.108,13.348,1.7,7.038,12.956,1.5,26.258.181,42.557A69.484,69.484,0,0,0,3.225,67.889,104.987,104.987,0,0,0,11.9,87.91a14.612,14.612,0,0,1-2.678-1.816c-1.226-.817-4.27-2.633-4.633,0C4.269,88.273,7.4,90.135,8.762,91.27c1.864,1.544,4,3,5.177,4.177.907.908,1.5,2.314,3.269,2.361,3.769.136,3.269-5.9,3.131-9.9a16.882,16.882,0,0,0-.679-4.4c-.41-1.181-.954-2.725-2.134-2.815-2.361-.181-2.59,2.77-3.043,4.858Z" transform="matrix(-0.588, -0.809, 0.809, -0.588, 12.013, 74.026)" fill="#0093de" fill-rule="evenodd"/>
</svg>
