<svg xmlns="http://www.w3.org/2000/svg" xmlns:xlink="http://www.w3.org/1999/xlink" width="72.708" height="70" viewBox="0 0 72.708 70">
  <defs>
    <linearGradient id="linear-gradient" x1="0.5" x2="0.5" y2="1" gradientUnits="objectBoundingBox">
      <stop offset="0" stop-color="#0034de"/>
      <stop offset="1" stop-color="#0093de"/>
    </linearGradient>
  </defs>
  <g id="resturant" transform="translate(-1.344 -10.827)">
    <path id="Path_83631" data-name="Path 83631" d="M1.441,73.868a9.562,9.562,0,0,0,9.194,6.959h54.13a9.578,9.578,0,0,0,9.189-6.959h0a2.651,2.651,0,0,0-2.57-3.345H69.755V30.749a8.784,8.784,0,0,0-8.778-8.77H55.129a4.539,4.539,0,0,0-2.157-.867,16.472,16.472,0,0,0-30.53,0,4.477,4.477,0,0,0-2.177.87H14.422a8.788,8.788,0,0,0-8.786,8.77V70.522H4.011a2.652,2.652,0,0,0-2.57,3.346Zm21.543-51.28H52.41a3.055,3.055,0,0,1,.627,6.044c-.49.122,1.045.045-30.054.067a3.055,3.055,0,0,1,0-6.111Zm3.159,33.626L24.762,44.635c9.772,3.992,20.111-3.933,25.978-.852L49.258,56.213A3.984,3.984,0,0,1,45.331,59.7H30.071a3.966,3.966,0,0,1-3.928-3.487ZM50.928,42.206c-6.835-2.926-17.065,5.159-26.379.666L23.044,30.213H52.358ZM21.492,29.957l3.144,26.436a5.483,5.483,0,0,0,5.441,4.824H45.33a5.482,5.482,0,0,0,5.433-4.824l2.967-24.954.181-1.482a4.562,4.562,0,0,0,2.327-1.814H60.69a2.9,2.9,0,0,1,2.9,2.9V62.967a2.9,2.9,0,0,1-2.9,2.9H14.71a2.9,2.9,0,0,1-2.893-2.9V31.044a2.9,2.9,0,0,1,2.893-2.9h4.459a4.581,4.581,0,0,0,2.323,1.814ZM37.7,12.342a14.941,14.941,0,0,1,13.612,8.731H24.093A15.028,15.028,0,0,1,37.7,12.342ZM7.151,30.749a7.271,7.271,0,0,1,7.271-7.256h4.534a4.555,4.555,0,0,0-.425,3.135H14.71A4.417,4.417,0,0,0,10.3,31.044V62.967a4.417,4.417,0,0,0,4.408,4.415h45.98A4.42,4.42,0,0,0,65.1,62.967V31.044a4.42,4.42,0,0,0-4.415-4.415H56.872a4.641,4.641,0,0,0,.108-.985,4.541,4.541,0,0,0-.54-2.15h4.537a7.267,7.267,0,0,1,7.263,7.256V70.522H7.151ZM4.011,72.036c10.135,0-23.15.005,67.372,0A1.138,1.138,0,0,1,72.5,73.459a8.058,8.058,0,0,1-7.73,5.854H10.635A8.046,8.046,0,0,1,2.9,73.459a1.138,1.138,0,0,1,1.112-1.422Z" fill="url(#linear-gradient)"/>
    <path id="Path_83632" data-name="Path 83632" d="M213.39,461.286h10.867a.757.757,0,1,0,0-1.515H213.39a.757.757,0,1,0,0,1.515Z" transform="translate(-181.127 -384.854)" fill="url(#linear-gradient)"/>
  </g>
</svg>
