<svg xmlns="http://www.w3.org/2000/svg" xmlns:xlink="http://www.w3.org/1999/xlink" width="55.484" height="70" viewBox="0 0 55.484 70">
  <defs>
    <linearGradient id="linear-gradient" x1="0.5" x2="0.5" y2="1" gradientUnits="objectBoundingBox">
      <stop offset="0" stop-color="#0034de"/>
      <stop offset="1" stop-color="#0093de"/>
    </linearGradient>
  </defs>
  <g id="Retail_gray" data-name="Retail gray" transform="translate(0 0)">
    <path id="Path_83617" data-name="Path 83617" d="M182.686,446.02a3.226,3.226,0,1,0,3.226,3.226A3.229,3.229,0,0,0,182.686,446.02Zm0,4.388a1.163,1.163,0,1,1,1.163-1.163A1.164,1.164,0,0,1,182.686,450.408Zm0,0" transform="translate(-154.944 -385.095)" fill="url(#linear-gradient)"/>
    <path id="Path_83618" data-name="Path 83618" d="M173.587,37.09h6.288a1.032,1.032,0,0,0,0-2.063h-6.288a1.032,1.032,0,1,0,0,2.063Zm0,0" transform="translate(-148.989 -30.21)" fill="url(#linear-gradient)"/>
    <path id="Path_83619" data-name="Path 83619" d="M84.9,276.727a1.028,1.028,0,0,0-1.024,1.032v19.63H44.044v-19.63a1.024,1.024,0,1,0-2.048,0v25.607a5.707,5.707,0,0,0,5.679,5.721H80.248a5.706,5.706,0,0,0,5.678-5.721V277.759a1.027,1.027,0,0,0-1.024-1.032Zm-4.654,30.3H47.675a3.649,3.649,0,0,1-3.631-3.658v-3.914H83.879v3.914a3.649,3.649,0,0,1-3.631,3.658Zm0,0" transform="translate(-36.22 -239.087)" fill="url(#linear-gradient)"/>
    <path id="Path_83620" data-name="Path 83620" d="M55.484,18.619v-.025c0-.007,0-.013,0-.02s0-.008,0-.011,0-.006,0-.01a1.025,1.025,0,0,0-.2-.549l-5.538-7.673V5.722A5.711,5.711,0,0,0,44.054,0H11.43A5.711,5.711,0,0,0,5.743,5.722v4.609L.2,18.016h0A1.028,1.028,0,0,0,0,18.555a.036.036,0,0,1,0,.008.1.1,0,0,1,0,.012c0,.006,0,.011,0,.017A.049.049,0,0,1,0,18.6v4.357a6.4,6.4,0,0,0,5.742,6.376v5.632a1.025,1.025,0,1,0,2.051,0V29.2a6.388,6.388,0,0,0,3.919-2.763,6.344,6.344,0,0,0,10.687,0,6.343,6.343,0,0,0,10.686,0,6.344,6.344,0,0,0,10.686,0A6.388,6.388,0,0,0,47.691,29.2v5.763a1.025,1.025,0,1,0,2.051,0V29.335a6.4,6.4,0,0,0,5.742-6.376V18.619Zm-11.04-1.028L43.7,15.876a1.023,1.023,0,0,0-1.35-.534,1.034,1.034,0,0,0-.53,1.358l.386.891H33.972L33.121,11.7h6.533l.528,1.219a1.023,1.023,0,0,0,1.35.534,1.034,1.034,0,0,0,.53-1.358l-.171-.395h6.3l4.253,5.892ZM24.434,11.7h6.615l.851,5.892H23.583Zm-13-9.636H44.054a3.652,3.652,0,0,1,3.637,3.659V9.635H7.793V5.722A3.652,3.652,0,0,1,11.43,2.063ZM7.29,11.7h6.3l-.174.4a1.034,1.034,0,0,0,.53,1.358,1.022,1.022,0,0,0,1.35-.534l.531-1.226h6.533l-.851,5.893H13.277l.351-.811a1.034,1.034,0,0,0-.53-1.358,1.023,1.023,0,0,0-1.35.534l-.708,1.634h-8ZM6.369,27.3A4.336,4.336,0,0,1,2.05,22.958v-3.3h8.636v3.3A4.336,4.336,0,0,1,6.369,27.3Zm10.686,0a4.336,4.336,0,0,1-4.318-4.344v-3.3h8.636v3.3A4.336,4.336,0,0,1,17.055,27.3Zm10.686,0a4.336,4.336,0,0,1-4.318-4.344v-3.3H32.06v3.3A4.336,4.336,0,0,1,27.741,27.3Zm10.687,0a4.336,4.336,0,0,1-4.318-4.344v-3.3h8.636v3.3A4.336,4.336,0,0,1,38.428,27.3Zm15-4.344a4.318,4.318,0,1,1-8.636,0v-3.3h8.636Zm0,0" transform="translate(0)" fill="url(#linear-gradient)"/>
    <path id="Path_83621" data-name="Path 83621" d="M162.438,287.612a2.3,2.3,0,0,0,2.145-1.483l1.62-4.286a1.534,1.534,0,0,0-1.435-2.076h-6.18a1.032,1.032,0,0,0,0,2.063H164l-1.349,3.57a.23.23,0,0,1-.215.149h-4.9a.231.231,0,0,1-.225-.183l-1.042-4.982a1.841,1.841,0,0,0-1.794-1.458h-1.032a1.032,1.032,0,1,0,0,2.063h.845l1,4.8a2.3,2.3,0,0,0,2.245,1.824Zm0,0" transform="translate(-131.614 -240.824)" fill="url(#linear-gradient)"/>
    <path id="Path_83622" data-name="Path 83622" d="M182.857,344.121h-.22a1.032,1.032,0,1,0,0,2.063h.22a1.032,1.032,0,1,0,0-2.063Zm0,0" transform="translate(-156.783 -297.082)" fill="url(#linear-gradient)"/>
    <path id="Path_83623" data-name="Path 83623" d="M208.869,344.121h-.22a1.032,1.032,0,1,0,0,2.063h.22a1.032,1.032,0,0,0,0-2.063Zm0,0" transform="translate(-179.24 -297.082)" fill="url(#linear-gradient)"/>
    <path id="Path_83624" data-name="Path 83624" d="M134.406,231.877a13,13,0,1,0-13,13A13.012,13.012,0,0,0,134.406,231.877Zm-23.932,0a10.935,10.935,0,1,1,10.935,10.935A10.947,10.947,0,0,1,110.473,231.877Zm0,0" transform="translate(-93.666 -189.06)" fill="url(#linear-gradient)"/>
  </g>
</svg>
