<svg xmlns="http://www.w3.org/2000/svg" xmlns:xlink="http://www.w3.org/1999/xlink" width="436.42" height="346.91" viewBox="0 0 436.42 346.91">
  <defs>
    <linearGradient id="linear-gradient" x1="0.02" y1="0.149" x2="1.043" y2="0.81" gradientUnits="objectBoundingBox">
      <stop offset="0" stop-color="#0034de"/>
      <stop offset="1" stop-color="#0093de"/>
    </linearGradient>
  </defs>
  <path id="rightArrow" d="M5.443,38.251C70.569-3.765,156.217-2,218.308,45.009A172,172,0,0,1,253.879,80.79c-.919.14-1.837.254-2.756.449-18.608,3.925-36.228,21.588-30.782,41.766,3.755,13.916,17.888,29.185,33.564,26,21.545-4.378,22.4-31.387,15.856-47.576a113.776,113.776,0,0,0-6.406-13.21c13.627-.46,27.561,4.781,39.222,11.79,39.4,23.68,61.819,68.429,61.166,113.8q-2.021-3.289-4.046-6.575c-.506-.827-2.587-3.785-3.879-2.946s.68,4.037,1.113,4.742c2.112,3.434,4.206,6.88,6.337,10.3,1.288,2.067,3.148,5.51,5.842,5.977,2.58.449,3.844-2.477,4.974-4.282l6.694-10.708c1.255-2.009-4.222-9.056-5.549-6.933q-1.969,3.148-3.938,6.3c-.543.868-1.232,1.8-1.918,2.742a149.379,149.379,0,0,0-51.937-107.159C301.557,91.728,280.145,79.079,258.5,80.307c-20.842-31.369-56.318-55.954-89.678-68.566C113.231-9.275,50.2-1.526.453,30.566-1.513,31.833,3.44,39.543,5.443,38.251ZM259.1,88.543c.314.5.658.987.965,1.5,6.369,10.559,10.729,23.243,6.037,35.335-3.441,8.866-10.887,16.369-20.979,16.127-14.509-.346-23.167-16.33-18.31-29.282,3.086-8.234,9.675-14.763,17.32-18.913A42.077,42.077,0,0,1,259.1,88.543Z" transform="translate(0 136.525) rotate(-21)" fill="url(#linear-gradient)"/>
</svg>
