<svg xmlns="http://www.w3.org/2000/svg" width="258.79" height="143.64" viewBox="0 0 258.79 143.64">
  <g id="shape" transform="translate(-1619.869 -828.517) rotate(-17)">
    <path id="Path_80" data-name="Path 80" d="M2371.65,2978.462c-.756,1.26-2.554,1.511-3.958,1.944-2.916.935-5.723,1.8-8.818,2.771-1.4.431-3.167,1.368-4.536.36-.035-1.511,1.8-1.727,3.023-2.159a81.376,81.376,0,0,1,12.057-3.275c.469-.072,1.766-.323,2.232.36Z" transform="translate(-824.704 -1638.675)" fill="#0093de" fill-rule="evenodd"/>
    <path id="Path_82" data-name="Path 82" d="M2052.092,3013.466c3.563.216,7.09.827,10.51,1.367,3.42.5,6.874.864,9.574,2.3-.649.648-1.656.288-2.52.18-4.426-.612-8.6-1.26-13.388-1.8-1.512-.144-5.83-.288-4.176-2.051Z" transform="translate(-2041.222 -138.22) rotate(-31)" fill="#0093de" fill-rule="evenodd"/>
    <path id="Path_86" data-name="Path 86" d="M2387.92,3079.259c-1.188.9-3.167.575-4.9.72-3.454.252-6.658.684-10.184,1.079-1.079.108-4.464.829-4.535-.54-.107-1.512,4.86-1.583,6.226-1.691,2.592-.216,5.111-.251,7.521-.36,1.944-.108,4.752-.252,5.867.792Z" transform="translate(-837.339 -1729.503)" fill="#0093de" fill-rule="evenodd"/>
    <path id="Path_87" data-name="Path 87" d="M2013.339,3097.734c.466-1.08,2.087-1.044,3.239-1.224a114.188,114.188,0,0,1,11.769-1.332c1.151-.072,4.245-.432,4.173.792-.034,1.008-3.454.828-4.532.9-4.355.288-8.171.648-12.488,1.044-.722.072-1.656.468-2.16-.18Z" transform="translate(-2049.483 -219.389) rotate(-31)" fill="#0093de" fill-rule="evenodd"/>
    <path id="Path_88" data-name="Path 88" d="M2397.46,3153.7c-1.585.216-2.917-.5-4.176-.971-2.554-.9-5.4-1.656-8.312-2.412-1.044-.252-3.42-.612-3.458-1.763a.959.959,0,0,1,1.044-1.08,32.521,32.521,0,0,1,7.233,1.872,24.755,24.755,0,0,1,6.443,2.663,2.627,2.627,0,0,1,1.225,1.691Z" transform="translate(-849.289 -1791.997)" fill="#0093de" fill-rule="evenodd"/>
    <path id="Path_89" data-name="Path 89" d="M2029.52,3167.406c-.109-1.332,1.438-2.016,2.554-2.591,1.188-.576,2.557-1.08,3.779-1.62,2.773-1.187,5.148-2.483,7.74-2.915.5-.108,1.222-.072,1.332.432.251,1.007-2.664,2.123-3.276,2.411-2.629,1.224-5.327,2.159-8.028,3.311-1.26.5-2.663,1.62-4.1.972Z" transform="translate(-2092.387 -262.379) rotate(-31)" fill="#0093de" fill-rule="evenodd"/>
  </g>
</svg>
