<svg xmlns="http://www.w3.org/2000/svg" xmlns:xlink="http://www.w3.org/1999/xlink" width="77.144" height="70" viewBox="0 0 77.144 70">
  <defs>
    <linearGradient id="linear-gradient" x1="0.5" x2="0.5" y2="1" gradientUnits="objectBoundingBox">
      <stop offset="0" stop-color="#0034de"/>
      <stop offset="1" stop-color="#0093de"/>
    </linearGradient>
  </defs>
  <path id="Special_Projects" data-name="Special Projects" d="M15.582,54.458a1.988,1.988,0,0,0-.3,1.808l3.737,12.011a2.021,2.021,0,0,0,1.929,1.417H35.053L34.4,71.758a.177.177,0,0,1-.181.136H20.992A3.1,3.1,0,1,0,23.419,73.1h8.334a3.022,3.022,0,0,0-.648,1.869,3.074,3.074,0,1,0,4.431-2.743c.015-.03.03-.075.045-.105l6.164-19.8a.954.954,0,0,1,.919-.678h.648v.226a1.28,1.28,0,0,0,1.281,1.281H49.58a1.28,1.28,0,0,0,1.281-1.281V50.193a1.28,1.28,0,0,0-1.281-1.281h-5A1.28,1.28,0,0,0,43.3,50.193v.226h-.648a2.185,2.185,0,0,0-2.08,1.522l-.527,1.688H17.21A2.027,2.027,0,0,0,15.582,54.458Zm5.41,22.379a1.869,1.869,0,1,1,1.869-1.869A1.868,1.868,0,0,1,20.992,76.837ZM44.487,50.193a.1.1,0,0,1,.09-.09h5a.1.1,0,0,1,.09.09v1.673a.1.1,0,0,1-.09.09h-5a.1.1,0,0,1-.09-.09V50.193ZM36.032,74.968A1.869,1.869,0,1,1,34.164,73.1,1.878,1.878,0,0,1,36.032,74.968Zm-.618-6.48H20.947a.809.809,0,0,1-.784-.573L16.426,55.9a.853.853,0,0,1,.121-.738.8.8,0,0,1,.663-.332H39.679Zm-7.279-2.155a.6.6,0,0,0,.6-.6V57.592a.6.6,0,0,0-1.206,0V65.73A.6.6,0,0,0,28.136,66.333Zm4.581-.015c.03,0,.06.015.105.015a.6.6,0,0,0,.588-.5L34.751,57.7a.6.6,0,0,0-1.191-.2L32.22,65.64A.577.577,0,0,0,32.717,66.318Zm-9.253.015a.191.191,0,0,0,.09-.015.61.61,0,0,0,.5-.693L22.71,57.487a.6.6,0,0,0-.693-.5.61.61,0,0,0-.5.693l1.341,8.138A.611.611,0,0,0,23.464,66.333Zm24.881-8.741a.6.6,0,0,0,.6.6H61.38a.6.6,0,0,0,0-1.206H48.947A.6.6,0,0,0,48.344,57.592Zm13.036,4.37H46.37a.6.6,0,0,0,0,1.206H61.38a.6.6,0,0,0,0-1.206Zm0,4.973H43.793a.6.6,0,1,0,0,1.206H61.365a.6.6,0,0,0,.6-.6A.583.583,0,0,0,61.38,66.936Zm0,4.958H41.231a.6.6,0,0,0,0,1.206H61.38a.6.6,0,0,0,0-1.206ZM76.555,85.08H73.768V45.567a5.985,5.985,0,0,0,3.225-5.32v-2.26a.9.9,0,0,0-.03-.181L73.014,26.563A4.286,4.286,0,0,0,68.975,23.7H8.183a4.272,4.272,0,0,0-4.039,2.863L.2,37.79c0,.015-.03.166-.03.2v2.26a6,6,0,0,0,3.225,5.32V85.08H.6a.6.6,0,0,0-.6.6v2.939A5.081,5.081,0,0,0,5.079,93.7H72.065a5.081,5.081,0,0,0,5.079-5.079V85.683A.583.583,0,0,0,76.555,85.08ZM23.735,24.921,21.851,37.4H12.342l3.135-12.478Zm37.946,0L64.816,37.4H55.307L53.423,24.921ZM28.271,87.793V86.286H48.887v1.507a.724.724,0,0,1-.723.723H29.01A.709.709,0,0,1,28.271,87.793ZM43.386,40.262a4.807,4.807,0,1,1-9.615,0V38.6h9.6l.015,1.658Zm.6,2.607a6,6,0,0,0,10.805,0,6,6,0,0,0,10.805,0,6.028,6.028,0,0,0,2.592,2.682V80.68H8.967V45.567a6.053,6.053,0,0,0,2.607-2.682,6,6,0,0,0,10.805,0,6,6,0,0,0,10.805,0,6.009,6.009,0,0,0,5.4,3.391A6.08,6.08,0,0,0,43.989,42.869ZM8.364,81.9H68.779a.6.6,0,0,0,.6-.6V46.049a5.745,5.745,0,0,0,1.6.211,6.252,6.252,0,0,0,1.582-.211V85.08H4.581V46.049a6.162,6.162,0,0,0,1.582.211,6.278,6.278,0,0,0,1.6-.211V81.3A.6.6,0,0,0,8.364,81.9ZM65,40.262a4.807,4.807,0,0,1-9.615,0V38.6h9.6L65,40.262Zm-10.805,0a4.807,4.807,0,1,1-9.615,0V38.6h9.6l.015,1.658Zm-32.416,0a4.807,4.807,0,0,1-9.615,0V38.6h9.6v1.658Zm10.805,0a4.807,4.807,0,0,1-9.615,0V38.6h9.6l.015,1.658Zm38.413,4.792a4.811,4.811,0,0,1-4.807-4.807V38.589H75.8v1.658A4.811,4.811,0,0,1,70.995,45.054ZM66.052,37.4,62.917,24.921H68.96a3.085,3.085,0,0,1,2.909,2.065L75.531,37.4Zm-21.5,0-.618-12.478h8.288L54.1,37.4ZM33.229,24.921,32.6,37.4H23.057l1.884-12.478ZM11.091,37.4H1.6L5.274,26.985a3.085,3.085,0,0,1,2.909-2.065h6.043ZM1.356,38.589h9.6v1.658a4.8,4.8,0,0,1-9.6.015Zm-.151,47.7H27.081v1.507a1.923,1.923,0,0,0,1.929,1.929H48.164a1.923,1.923,0,0,0,1.929-1.929V86.286h25.86v2.336a3.9,3.9,0,0,1-3.888,3.888H5.079a3.875,3.875,0,0,1-3.873-3.888ZM34.435,24.921h8.288L43.356,37.4H33.817Z" transform="translate(0 -23.7)" fill="url(#linear-gradient)"/>
</svg>
